<mxfile host="app.diagrams.net" modified="2023-09-28T18:04:49.777Z" agent="Mozilla/5.0 (Windows NT 10.0; Win64; x64) AppleWebKit/537.36 (KHTML, like Gecko) Chrome/117.0.0.0 Safari/537.36" etag="3eJnQ2_NCKh7ReHGVs8v" version="21.8.2" type="github">
  <diagram id="C5RBs43oDa-KdzZeNtuy" name="Page-1">
    <mxGraphModel dx="1434" dy="758" grid="1" gridSize="10" guides="1" tooltips="1" connect="1" arrows="1" fold="1" page="1" pageScale="1" pageWidth="827" pageHeight="1169" math="0" shadow="0">
      <root>
        <mxCell id="WIyWlLk6GJQsqaUBKTNV-0" />
        <mxCell id="WIyWlLk6GJQsqaUBKTNV-1" parent="WIyWlLk6GJQsqaUBKTNV-0" />
        <mxCell id="qu4ufbwewzg5NnS7-lEg-0" value="unlock your phone" style="rounded=0;whiteSpace=wrap;html=1;fillColor=#b0e3e6;strokeColor=#0e8088;" vertex="1" parent="WIyWlLk6GJQsqaUBKTNV-1">
          <mxGeometry width="120" height="60" as="geometry" />
        </mxCell>
        <mxCell id="qu4ufbwewzg5NnS7-lEg-1" value="" style="endArrow=classic;html=1;rounded=0;exitX=0.5;exitY=1;exitDx=0;exitDy=0;entryX=0.5;entryY=0;entryDx=0;entryDy=0;fillColor=#fad7ac;strokeColor=#b46504;" edge="1" parent="WIyWlLk6GJQsqaUBKTNV-1" source="qu4ufbwewzg5NnS7-lEg-0" target="qu4ufbwewzg5NnS7-lEg-4">
          <mxGeometry width="50" height="50" relative="1" as="geometry">
            <mxPoint x="390" y="290" as="sourcePoint" />
            <mxPoint x="171.96000000000004" y="238.01999999999998" as="targetPoint" />
          </mxGeometry>
        </mxCell>
        <mxCell id="qu4ufbwewzg5NnS7-lEg-4" value="open the contacts app" style="rounded=0;whiteSpace=wrap;html=1;fillColor=#b0e3e6;strokeColor=#0e8088;" vertex="1" parent="WIyWlLk6GJQsqaUBKTNV-1">
          <mxGeometry y="90" width="120" height="60" as="geometry" />
        </mxCell>
        <mxCell id="qu4ufbwewzg5NnS7-lEg-5" value="" style="endArrow=classic;html=1;rounded=0;exitX=0.558;exitY=1.017;exitDx=0;exitDy=0;exitPerimeter=0;fillColor=#fad7ac;strokeColor=#b46504;" edge="1" parent="WIyWlLk6GJQsqaUBKTNV-1" source="qu4ufbwewzg5NnS7-lEg-4" target="qu4ufbwewzg5NnS7-lEg-6">
          <mxGeometry width="50" height="50" relative="1" as="geometry">
            <mxPoint x="-200" y="290" as="sourcePoint" />
            <mxPoint x="177" y="360" as="targetPoint" />
          </mxGeometry>
        </mxCell>
        <mxCell id="qu4ufbwewzg5NnS7-lEg-6" value="press the add button&lt;br&gt;" style="rounded=0;whiteSpace=wrap;html=1;fillColor=#b0e3e6;strokeColor=#0e8088;" vertex="1" parent="WIyWlLk6GJQsqaUBKTNV-1">
          <mxGeometry x="10" y="180" width="120" height="60" as="geometry" />
        </mxCell>
        <mxCell id="qu4ufbwewzg5NnS7-lEg-7" value="" style="endArrow=classic;html=1;rounded=0;exitX=0.45;exitY=0.967;exitDx=0;exitDy=0;exitPerimeter=0;fillColor=#fad7ac;strokeColor=#b46504;" edge="1" parent="WIyWlLk6GJQsqaUBKTNV-1" source="qu4ufbwewzg5NnS7-lEg-6" target="qu4ufbwewzg5NnS7-lEg-8">
          <mxGeometry width="50" height="50" relative="1" as="geometry">
            <mxPoint x="-200" y="290" as="sourcePoint" />
            <mxPoint x="170" y="440" as="targetPoint" />
          </mxGeometry>
        </mxCell>
        <mxCell id="qu4ufbwewzg5NnS7-lEg-8" value="type in the contact number" style="rounded=0;whiteSpace=wrap;html=1;fillColor=#b0e3e6;strokeColor=#0e8088;" vertex="1" parent="WIyWlLk6GJQsqaUBKTNV-1">
          <mxGeometry y="260" width="120" height="60" as="geometry" />
        </mxCell>
        <mxCell id="qu4ufbwewzg5NnS7-lEg-9" value="press save" style="rounded=0;whiteSpace=wrap;html=1;fillColor=#b0e3e6;strokeColor=#0e8088;" vertex="1" parent="WIyWlLk6GJQsqaUBKTNV-1">
          <mxGeometry x="10" y="340" width="120" height="60" as="geometry" />
        </mxCell>
        <mxCell id="qu4ufbwewzg5NnS7-lEg-10" value="" style="endArrow=classic;html=1;rounded=0;entryX=0.5;entryY=0;entryDx=0;entryDy=0;exitX=0.5;exitY=1;exitDx=0;exitDy=0;fillColor=#fad7ac;strokeColor=#b46504;" edge="1" parent="WIyWlLk6GJQsqaUBKTNV-1" source="qu4ufbwewzg5NnS7-lEg-8" target="qu4ufbwewzg5NnS7-lEg-9">
          <mxGeometry width="50" height="50" relative="1" as="geometry">
            <mxPoint x="200" y="530" as="sourcePoint" />
            <mxPoint x="160" y="520" as="targetPoint" />
          </mxGeometry>
        </mxCell>
      </root>
    </mxGraphModel>
  </diagram>
</mxfile>
